<svg xmlns="http://www.w3.org/2000/svg" width="47.117" height="54.592" viewBox="0 0 47.117 54.592">
  <path id="svgexport-13_1_" data-name="svgexport-13 (1)" d="M49.409,30.944V15.955c0-4.418,0-6.627-.86-8.315A7.888,7.888,0,0,0,45.1,4.193c-1.688-.86-3.9-.86-8.315-.86H19.958c-4.418,0-6.627,0-8.315.86A7.889,7.889,0,0,0,8.2,7.641c-.86,1.688-.86,3.9-.86,8.315V43.3c0,4.418,0,6.627.86,8.315a7.889,7.889,0,0,0,3.448,3.448c1.687.86,3.9.86,8.315.86h8.415M33.632,27H17.854m5.259,10.518H17.854M38.891,16.481H17.854M34.947,48.037,40.206,53.3,52.039,41.462" transform="translate(-6.336 -2.333)" fill="none" stroke="#393cfb" stroke-linecap="round" stroke-linejoin="round" stroke-width="2"/>
</svg>
