<svg xmlns="http://www.w3.org/2000/svg" width="44.842" height="55.009" viewBox="0 0 44.842 55.009">
  <path id="svgexport-12_1_" data-name="svgexport-12 (1)" d="M20.388,28.7l5.355,5.355L37.793,22.008m12.049,8.033c0,13.143-14.336,22.7-19.552,25.745a4.315,4.315,0,0,1-1.308.608,3.04,3.04,0,0,1-1.123,0,4.315,4.315,0,0,1-1.308-.608C21.336,52.743,7,43.184,7,30.041V17.235A12.187,12.187,0,0,1,7.35,13.1a5.355,5.355,0,0,1,1.464-2.113A12.187,12.187,0,0,1,12.56,9.213L26.917,3.829a5.688,5.688,0,0,1,1.121-.355,2.678,2.678,0,0,1,.766,0,5.691,5.691,0,0,1,1.121.355L44.282,9.213a12.185,12.185,0,0,1,3.745,1.778A5.354,5.354,0,0,1,49.492,13.1a12.183,12.183,0,0,1,.35,4.131Z" transform="translate(-6 -2.447)" fill="none" stroke="#393cfb" stroke-linecap="round" stroke-linejoin="round" stroke-width="2"/>
</svg>
