<svg xmlns="http://www.w3.org/2000/svg" width="49.333" height="54.592" viewBox="0 0 49.333 54.592">
  <path id="svgexport-10_1_" data-name="svgexport-10 (1)" d="M42.482,50.666h-.526c-4.418,0-6.627,0-8.315-.86a7.89,7.89,0,0,1-3.448-3.448c-.86-1.688-.86-3.9-.86-8.315V21.215c0-4.418,0-6.627.86-8.315a7.889,7.889,0,0,1,3.448-3.448c1.688-.86,3.9-.86,8.315-.86h.526m0,42.074a5.259,5.259,0,1,0,5.259-5.259A5.259,5.259,0,0,0,42.482,50.666Zm0-42.074a5.259,5.259,0,1,0,5.259-5.259A5.259,5.259,0,0,0,42.482,8.592Zm-26.3,21.037h26.3m-26.3,0a5.259,5.259,0,1,1-5.259-5.259A5.259,5.259,0,0,1,16.186,29.629Zm26.3,0a5.259,5.259,0,1,0,5.259-5.259A5.259,5.259,0,0,0,42.482,29.629Z" transform="translate(-4.668 -2.333)" fill="none" stroke="#393cfb" stroke-linecap="round" stroke-linejoin="round" stroke-width="2"/>
</svg>
