<?xml version="1.0" standalone="no"?>
<!DOCTYPE svg PUBLIC "-//W3C//DTD SVG 20010904//EN"
 "http://www.w3.org/TR/2001/REC-SVG-20010904/DTD/svg10.dtd">
<svg version="1.0" xmlns="http://www.w3.org/2000/svg"
 width="512.000000pt" height="512.000000pt" viewBox="0 0 512.000000 512.000000"
 preserveAspectRatio="xMidYMid meet">
<metadata>
Created by potrace 1.14, written by Peter Selinger 2001-2017
</metadata>
<g transform="translate(0.000000,512.000000) scale(0.100000,-0.100000)"
fill="#000000" stroke="none">
<path d="M0 2560 l0 -2560 2560 0 2560 0 0 2560 0 2560 -2560 0 -2560 0 0
-2560z m1290 644 c208 -66 365 -224 437 -439 l27 -80 4 -398 3 -398 -68 3 -68
3 -5 395 c-6 434 -5 430 -73 549 -66 118 -211 223 -345 250 -261 54 -511 -89
-611 -347 l-26 -67 -3 -392 -3 -393 -65 0 -64 0 0 383 c0 349 2 391 20 461 52
206 207 380 405 457 138 54 293 58 435 13z m1435 10 c206 -53 384 -221 459
-433 27 -78 30 -98 31 -211 0 -112 -3 -134 -29 -214 -70 -214 -249 -384 -466
-442 -87 -23 -243 -23 -330 0 -217 58 -396 228 -466 442 -26 80 -29 102 -29
214 1 113 4 133 31 211 119 336 458 520 799 433z m1463 0 c111 -29 200 -82
293 -174 98 -97 148 -183 179 -306 18 -70 20 -112 20 -461 l0 -383 -64 0 -65
0 -3 393 -3 392 -26 67 c-68 175 -202 298 -376 343 -273 71 -563 -104 -638
-385 -19 -70 -19 -200 0 -270 39 -148 144 -278 276 -342 105 -51 152 -58 409
-58 l230 0 0 -71 0 -71 -257 5 c-278 5 -310 10 -426 65 -171 81 -293 221 -354
407 -22 68 -26 97 -26 200 0 103 4 132 26 200 68 205 216 360 414 432 37 13
92 28 123 33 68 11 193 3 268 -16z"/>
<path d="M2426 3084 c-181 -44 -342 -208 -387 -394 -79 -332 177 -660 516
-660 291 0 529 241 529 535 0 245 -171 465 -405 520 -79 18 -175 18 -253 -1z"/>
</g>
</svg>
