<svg xmlns="http://www.w3.org/2000/svg" xmlns:xlink="http://www.w3.org/1999/xlink" width="1200" zoomAndPan="magnify" viewBox="0 0 900 525.000007" height="700" preserveAspectRatio="xMidYMid meet" version="1.0"><defs><clipPath id="d30798f8ba"><path d="M 0.855469 0 L 899.144531 0 L 899.144531 524 L 0.855469 524 Z M 0.855469 0 " clip-rule="nonzero"/></clipPath></defs><g clip-path="url(#d30798f8ba)"><path fill="#ffffff" d="M 0.855469 0 L 899.144531 0 L 899.144531 524 L 0.855469 524 Z M 0.855469 0 " fill-opacity="1" fill-rule="nonzero"/><path fill="#ffffff" d="M 0.855469 0 L 899.144531 0 L 899.144531 524 L 0.855469 524 Z M 0.855469 0 " fill-opacity="1" fill-rule="nonzero"/></g><path fill="#00ccbc" d="M 369.757812 301.871094 L 383.320312 301.871094 L 381.074219 291.339844 L 381.074219 228.550781 L 368.097656 228.550781 L 368.097656 257.1875 C 364.195312 252.664062 358.828125 250.007812 352.488281 250.007812 C 339.511719 250.007812 329.464844 260.730469 329.464844 276.480469 C 329.464844 292.226562 339.511719 302.953125 352.488281 302.953125 C 358.929688 302.953125 364.488281 300.199219 368.394531 295.472656 Z M 626.238281 264.082031 C 628.875 264.082031 631.3125 264.769531 633.554688 266.339844 L 639.703125 252.46875 C 636.871094 250.691406 633.554688 249.910156 630.335938 249.910156 C 624.480469 249.910156 619.605469 252.558594 616.484375 257.488281 L 615.117188 251.082031 L 601.75 251.082031 L 603.898438 261.023438 L 603.898438 301.863281 L 616.863281 301.863281 L 616.863281 269.488281 C 618.621094 266.140625 621.941406 264.078125 626.230469 264.078125 L 626.230469 264.082031 Z M 664.28125 289.273438 C 656.777344 289.273438 651.210938 284.257812 651.210938 276.476562 C 651.210938 268.605469 656.777344 263.6875 664.28125 263.6875 C 671.894531 263.6875 677.359375 268.605469 677.359375 276.476562 C 677.359375 284.257812 671.894531 289.273438 664.285156 289.273438 Z M 342.050781 276.476562 C 342.050781 268.605469 347.609375 263.6875 355.121094 263.6875 C 362.734375 263.6875 368.195312 268.605469 368.195312 276.476562 C 368.195312 284.257812 362.734375 289.273438 355.125 289.273438 C 347.613281 289.273438 342.050781 284.257812 342.050781 276.476562 Z M 721.746094 289.273438 C 714.238281 289.273438 708.675781 284.257812 708.675781 276.476562 C 708.675781 268.605469 714.238281 263.6875 721.746094 263.6875 C 729.355469 263.6875 734.820312 268.605469 734.820312 276.476562 C 734.820312 284.257812 729.355469 289.273438 721.746094 289.273438 Z M 414.828125 262.898438 C 421.558594 262.898438 425.949219 266.046875 427.316406 271.851562 L 402.34375 271.851562 C 403.804688 266.046875 408.195312 262.898438 414.828125 262.898438 Z M 570.039062 262.898438 C 576.777344 262.898438 581.167969 266.046875 582.53125 271.851562 L 557.558594 271.851562 C 559.023438 266.046875 563.410156 262.898438 570.042969 262.898438 Z M 506.730469 301.871094 L 527.609375 301.871094 L 541.171875 251.089844 L 527.023438 251.089844 L 517.078125 292.226562 L 507.125 251.089844 L 493.171875 251.089844 L 506.734375 301.871094 Z M 473.265625 301.871094 L 486.234375 301.871094 L 486.234375 251.085938 L 473.265625 251.085938 Z M 416.816406 302.8125 C 424.039062 302.8125 431.160156 300.839844 437.113281 297.003906 L 432.136719 285.785156 C 427.453125 288.246094 422.285156 289.722656 417.015625 289.722656 C 410.1875 289.722656 405.40625 287.066406 403.355469 282.144531 L 439.839844 282.144531 C 440.230469 280.277344 440.429688 278.40625 440.429688 276.140625 C 440.429688 260.394531 429.601562 249.867188 415.0625 249.867188 C 400.433594 249.867188 389.699219 260.492188 389.699219 276.339844 C 389.699219 292.476562 400.332031 302.8125 416.820312 302.8125 Z M 747.40625 276.476562 C 747.40625 260.730469 736.480469 250.003906 721.746094 250.003906 C 707.015625 250.003906 696.089844 260.730469 696.089844 276.476562 C 696.089844 292.226562 707.015625 302.953125 721.746094 302.953125 C 736.480469 302.953125 747.402344 292.226562 747.402344 276.476562 Z M 571.800781 302.953125 C 579.015625 302.953125 586.136719 300.984375 592.09375 297.144531 L 587.117188 285.921875 C 582.433594 288.382812 577.261719 289.855469 571.992188 289.855469 C 565.164062 289.855469 560.382812 287.203125 558.335938 282.277344 L 594.824219 282.277344 C 595.210938 280.410156 595.40625 278.539062 595.40625 276.277344 C 595.40625 260.53125 584.574219 250 570.039062 250 C 555.40625 250 544.675781 260.628906 544.675781 276.472656 C 544.675781 292.613281 555.3125 302.949219 571.800781 302.949219 Z M 664.285156 302.953125 C 679.015625 302.953125 689.941406 292.226562 689.941406 276.476562 C 689.941406 260.730469 679.015625 250.003906 664.28125 250.003906 C 649.550781 250.003906 638.625 260.730469 638.625 276.476562 C 638.625 292.226562 649.550781 302.953125 664.28125 302.953125 Z M 448.683594 301.871094 L 461.65625 301.871094 L 461.65625 228.550781 L 448.679688 228.550781 L 448.679688 301.871094 Z M 479.800781 244.097656 C 484.386719 244.097656 487.898438 240.550781 487.898438 235.828125 C 487.898438 231.105469 484.390625 227.5625 479.804688 227.5625 C 475.121094 227.5625 471.605469 231.105469 471.605469 235.828125 C 471.605469 240.550781 475.121094 244.09375 479.804688 244.09375 Z M 256.898438 182.332031 L 249.46875 252.699219 L 236.800781 193.375 L 197.074219 201.78125 L 209.738281 261.105469 L 152.460938 273.222656 L 162.578125 320.609375 L 263.296875 341.914062 L 286.332031 290.421875 L 297.292969 186.5625 L 256.894531 182.332031 L 256.898438 182.335938 Z M 225.070312 284.410156 C 222.996094 286.304688 220.25 286.132812 217.335938 285.164062 C 214.429688 284.203125 213.136719 280.703125 214.238281 276.46875 C 215.058594 273.328125 218.921875 272.855469 220.855469 272.824219 C 221.589844 272.808594 222.3125 272.957031 222.980469 273.257812 C 224.347656 273.875 226.660156 275.1875 227.128906 277.191406 C 227.808594 280.085938 227.15625 282.511719 225.078125 284.40625 L 225.074219 284.40625 L 225.074219 284.410156 Z M 254.230469 287.675781 C 252.722656 290.285156 248.761719 290.632812 244.867188 288.734375 C 242.238281 287.453125 242.257812 284.191406 242.546875 282.203125 C 242.703125 281.097656 243.125 280.109375 243.820312 279.238281 C 244.757812 278.054688 246.324219 276.511719 248.132812 276.464844 C 251.074219 276.386719 253.605469 277.699219 255.039062 280.078125 C 256.472656 282.449219 255.753906 285.0625 254.242188 287.675781 Z M 254.230469 287.675781 " fill-opacity="1" fill-rule="nonzero"/></svg>