<svg xmlns="http://www.w3.org/2000/svg" xmlns:xlink="http://www.w3.org/1999/xlink" width="1200" zoomAndPan="magnify" viewBox="0 0 900 525.000007" height="700" preserveAspectRatio="xMidYMid meet" version="1.0"><defs><clipPath id="87d29a2daf"><path d="M 0.855469 0 L 899.144531 0 L 899.144531 524 L 0.855469 524 Z M 0.855469 0 " clip-rule="nonzero"/></clipPath><clipPath id="0e80f1610e"><path d="M 150.589844 238 L 255 238 L 255 256 L 150.589844 256 Z M 150.589844 238 " clip-rule="nonzero"/></clipPath><clipPath id="4b5ea0d55d"><path d="M 275 209.398438 L 749.410156 209.398438 L 749.410156 314.949219 L 275 314.949219 Z M 275 209.398438 " clip-rule="nonzero"/></clipPath></defs><g clip-path="url(#87d29a2daf)"><path fill="#ffffff" d="M 0.855469 0 L 899.144531 0 L 899.144531 524 L 0.855469 524 Z M 0.855469 0 " fill-opacity="1" fill-rule="nonzero"/><path fill="#ffffff" d="M 0.855469 0 L 899.144531 0 L 899.144531 524 L 0.855469 524 Z M 0.855469 0 " fill-opacity="1" fill-rule="nonzero"/></g><path fill="#000000" d="M 220.144531 227.171875 L 184.640625 227.171875 C 179.996094 227.171875 176.230469 223.398438 176.230469 218.742188 C 176.230469 214.085938 179.992188 210.3125 184.640625 210.3125 L 220.144531 210.3125 C 224.785156 210.3125 228.550781 214.085938 228.550781 218.742188 C 228.550781 223.398438 224.789062 227.171875 220.144531 227.171875 Z M 220.144531 227.171875 " fill-opacity="1" fill-rule="nonzero"/><g clip-path="url(#0e80f1610e)"><path fill="#000000" d="M 245.867188 255.269531 L 158.914062 255.269531 C 154.316406 255.269531 150.589844 251.5 150.589844 246.84375 C 150.589844 242.1875 154.316406 238.414062 158.914062 238.414062 L 245.867188 238.414062 C 250.464844 238.414062 254.191406 242.1875 254.191406 246.84375 C 254.191406 251.5 250.464844 255.269531 245.867188 255.269531 Z M 245.867188 255.269531 " fill-opacity="1" fill-rule="nonzero"/></g><path fill="#000000" d="M 166.257812 283.367188 C 161.667969 283.367188 157.945312 279.59375 157.945312 274.9375 C 157.945312 270.28125 161.667969 266.507812 166.257812 266.507812 L 238.519531 266.507812 C 243.113281 266.507812 246.835938 270.28125 246.835938 274.9375 C 246.835938 279.59375 243.113281 283.367188 238.519531 283.367188 Z M 166.257812 283.367188 " fill-opacity="1" fill-rule="nonzero"/><path fill="#000000" d="M 216.195312 311.460938 L 188.601562 311.460938 C 183.960938 311.460938 180.191406 307.6875 180.191406 303.03125 C 180.191406 298.375 183.953125 294.605469 188.601562 294.605469 L 216.195312 294.605469 C 220.835938 294.605469 224.605469 298.375 224.605469 303.03125 C 224.605469 307.6875 220.839844 311.460938 216.195312 311.460938 Z M 216.195312 311.460938 " fill-opacity="1" fill-rule="nonzero"/><g clip-path="url(#4b5ea0d55d)"><path fill="#000000" d="M 689.820312 270.304688 C 690.523438 259.140625 699.421875 251.933594 712.695312 251.933594 C 725.269531 251.933594 734.160156 259.140625 734.160156 269.457031 C 734.160156 269.882812 733.878906 270.304688 733.171875 270.304688 Z M 713.683594 314.824219 C 726.816406 314.824219 738.253906 309.453125 744.894531 300.128906 C 745.882812 298.714844 746.445312 297.15625 746.445312 295.605469 C 746.445312 292.070312 743.765625 289.527344 740.234375 289.527344 C 737.976562 289.527344 736.140625 290.519531 733.738281 293.058594 C 727.949219 299.273438 721.875 302.101562 714.109375 302.101562 C 699.984375 302.101562 690.382812 293.90625 689.675781 281.328125 L 747.007812 281.328125 C 748.5625 281.328125 749.410156 280.476562 749.410156 279.066406 L 749.410156 277.511719 C 749.410156 254.617188 734.863281 239.640625 712.550781 239.640625 C 690.238281 239.640625 674.28125 254.761719 674.28125 277.511719 C 674.28125 300.265625 689.8125 314.824219 713.679688 314.824219 Z M 659.175781 314.824219 C 663.695312 314.824219 666.945312 311.429688 666.945312 306.910156 L 666.945312 217.3125 C 666.945312 212.789062 663.554688 209.398438 659.175781 209.398438 C 654.796875 209.398438 651.40625 212.792969 651.40625 217.3125 L 651.40625 306.910156 C 651.40625 311.433594 654.796875 314.824219 659.175781 314.824219 Z M 572.609375 314.824219 C 576.984375 314.824219 580.089844 311.429688 580.089844 306.910156 L 580.089844 302.386719 C 584.894531 310.300781 594.351562 314.824219 606.21875 314.824219 C 628.675781 314.824219 644.066406 299.421875 644.066406 276.949219 C 644.066406 254.480469 628.8125 239.640625 607.492188 239.640625 C 595.488281 239.640625 585.035156 244.726562 580.519531 252.925781 L 580.519531 217.3125 C 580.519531 212.789062 577.128906 209.398438 572.75 209.398438 C 568.371094 209.398438 564.980469 212.792969 564.980469 217.3125 L 564.980469 306.910156 C 564.980469 311.433594 568.230469 314.824219 572.609375 314.824219 Z M 604.101562 302.105469 C 588.847656 302.105469 579.808594 292.921875 579.808594 277.230469 C 579.808594 261.542969 588.847656 252.359375 604.101562 252.359375 C 619.351562 252.359375 628.53125 261.542969 628.53125 277.230469 C 628.53125 292.921875 619.496094 302.105469 604.101562 302.105469 Z M 392.976562 314.824219 C 403.285156 314.824219 412.183594 310.300781 416.417969 303.09375 L 416.417969 306.90625 C 416.417969 311.429688 419.808594 314.820312 424.1875 314.820312 C 428.566406 314.820312 431.957031 311.425781 431.957031 306.90625 L 431.957031 249.8125 C 431.957031 245.289062 428.566406 241.898438 424.1875 241.898438 C 419.808594 241.898438 416.417969 245.292969 416.417969 249.8125 L 416.417969 284.011719 C 416.417969 296.167969 409.921875 302.804688 398.058594 302.804688 C 386.199219 302.804688 379.558594 296.167969 379.558594 284.011719 L 379.558594 249.8125 C 379.558594 245.289062 376.167969 241.898438 371.789062 241.898438 C 367.410156 241.898438 364.019531 245.292969 364.019531 249.8125 L 364.019531 284.859375 C 364.019531 304.078125 374.328125 314.820312 392.96875 314.820312 Z M 291.019531 250.945312 L 291.019531 223.671875 C 291.019531 223.105469 291.585938 222.539062 292.148438 222.539062 L 322.367188 222.539062 C 332.113281 222.539062 337.902344 227.769531 337.902344 236.675781 C 337.902344 245.578125 332.113281 250.945312 322.367188 250.945312 Z M 277.605469 312.566406 L 323.644531 312.566406 C 343.980469 312.566406 356.6875 300.976562 356.6875 282.605469 C 356.6875 268.1875 350.050781 259.996094 336.210938 257.449219 C 347.222656 255.191406 353.578125 247.132812 353.578125 235.546875 C 353.578125 219.574219 341.714844 209.398438 323.214844 209.398438 L 277.601562 209.398438 C 276.328125 209.398438 275.34375 210.390625 275.34375 211.65625 L 275.34375 310.300781 C 275.34375 311.574219 276.332031 312.558594 277.601562 312.558594 Z M 291.019531 298.148438 L 291.019531 264.515625 L 322.933594 264.515625 C 334.089844 264.515625 340.867188 271.152344 340.867188 281.894531 C 340.867188 292.632812 334.089844 299.273438 322.933594 299.273438 L 292.148438 299.273438 C 291.582031 299.273438 291.019531 298.707031 291.019531 298.144531 Z M 448.761719 314.824219 C 453.28125 314.824219 456.53125 311.429688 456.53125 306.910156 L 456.53125 270.449219 C 456.53125 258.859375 463.167969 251.652344 474.042969 251.652344 C 484.917969 251.652344 490.703125 258.578125 490.703125 270.449219 L 490.703125 306.910156 C 490.703125 311.433594 494.09375 314.824219 498.472656 314.824219 C 502.851562 314.824219 506.242188 311.429688 506.242188 306.910156 L 506.242188 270.449219 C 506.242188 258.859375 512.878906 251.652344 523.753906 251.652344 C 534.628906 251.652344 540.414062 258.578125 540.414062 270.449219 L 540.414062 306.910156 C 540.414062 311.433594 543.808594 314.824219 548.183594 314.824219 C 552.5625 314.824219 555.953125 311.429688 555.953125 306.910156 L 555.953125 269.601562 C 555.953125 250.804688 545.503906 239.640625 527.992188 239.640625 C 516.414062 239.640625 507.800781 244.589844 503.136719 253.773438 C 498.476562 244.304688 490.566406 239.640625 478.988281 239.640625 C 468.402344 239.640625 460.773438 243.597656 456.535156 251.371094 L 456.535156 249.816406 C 456.535156 245.292969 453.144531 241.902344 448.765625 241.902344 C 444.390625 241.902344 440.996094 245.296875 440.996094 249.816406 L 440.996094 306.910156 C 440.996094 311.433594 444.390625 314.824219 448.765625 314.824219 Z M 448.761719 314.824219 " fill-opacity="1" fill-rule="nonzero"/></g></svg>