<svg xmlns="http://www.w3.org/2000/svg" xmlns:xlink="http://www.w3.org/1999/xlink" width="1200" zoomAndPan="magnify" viewBox="0 0 900 525.000007" height="700" preserveAspectRatio="xMidYMid meet" version="1.0"><defs><clipPath id="b4f4edb70e"><path d="M 0.855469 0 L 899.144531 0 L 899.144531 524 L 0.855469 524 Z M 0.855469 0 " clip-rule="nonzero"/></clipPath><clipPath id="a1c4ea7e7e"><path d="M 586 170.550781 L 599 170.550781 L 599 252 L 586 252 Z M 586 170.550781 " clip-rule="nonzero"/></clipPath><clipPath id="0cf44a50d1"><path d="M 607 170.550781 L 625 170.550781 L 625 252 L 607 252 Z M 607 170.550781 " clip-rule="nonzero"/></clipPath><clipPath id="cbd2921bd6"><path d="M 691 193 L 749.429688 193 L 749.429688 275 L 691 275 Z M 691 193 " clip-rule="nonzero"/></clipPath><clipPath id="5952089789"><path d="M 444 293 L 502 293 L 502 353.203125 L 444 353.203125 Z M 444 293 " clip-rule="nonzero"/></clipPath><clipPath id="cca6ca11c4"><path d="M 150.570312 171 L 332 171 L 332 352 L 150.570312 352 Z M 150.570312 171 " clip-rule="nonzero"/></clipPath></defs><g clip-path="url(#b4f4edb70e)"><path fill="#ffffff" d="M 0.855469 0 L 899.144531 0 L 899.144531 524 L 0.855469 524 Z M 0.855469 0 " fill-opacity="1" fill-rule="nonzero"/><path fill="#ffffff" d="M 0.855469 0 L 899.144531 0 L 899.144531 524 L 0.855469 524 Z M 0.855469 0 " fill-opacity="1" fill-rule="nonzero"/></g><path fill="#192851" d="M 402.621094 253.398438 C 396.535156 253.398438 391.132812 252.359375 386.421875 250.285156 C 381.707031 248.210938 377.921875 245.320312 375.066406 241.609375 C 372.207031 237.90625 370.332031 233.605469 369.441406 228.710938 L 383.027344 225.265625 C 383.695312 228.601562 384.898438 231.457031 386.644531 233.828125 C 388.386719 236.199219 390.613281 238.015625 393.324219 239.277344 C 396.035156 240.539062 399.097656 241.167969 402.511719 241.167969 C 407.558594 241.167969 411.695312 240.164062 414.925781 238.164062 C 418.15625 236.164062 419.769531 233.308594 419.769531 229.601562 C 419.769531 227.230469 419.082031 225.339844 417.710938 223.929688 C 416.335938 222.523438 414.257812 221.355469 411.472656 220.425781 C 408.6875 219.5 404.664062 218.519531 399.394531 217.480469 C 393.308594 216.148438 388.316406 214.628906 384.417969 212.921875 C 380.523438 211.214844 377.496094 208.902344 375.34375 205.96875 C 373.191406 203.042969 372.113281 199.28125 372.113281 194.683594 C 372.113281 189.867188 373.375 185.714844 375.902344 182.226562 C 378.421875 178.746094 381.929688 176.09375 386.421875 174.277344 C 390.910156 172.460938 396.089844 171.554688 401.953125 171.554688 C 407.296875 171.554688 412.011719 172.480469 416.09375 174.335938 C 420.175781 176.1875 423.519531 178.765625 426.117188 182.0625 C 428.714844 185.363281 430.570312 189.199219 431.683594 193.574219 L 418.765625 197.242188 C 417.503906 192.792969 415.429688 189.382812 412.535156 187.011719 C 409.636719 184.640625 406 183.453125 401.617188 183.453125 C 397.015625 183.453125 393.289062 184.378906 390.429688 186.230469 C 387.570312 188.085938 386.144531 190.53125 386.144531 193.574219 C 386.144531 195.648438 386.792969 197.335938 388.09375 198.632812 C 389.390625 199.929688 391.285156 201.003906 393.773438 201.855469 C 396.257812 202.710938 399.875 203.65625 404.625 204.691406 C 411.230469 206.027344 416.597656 207.585938 420.714844 209.363281 C 424.835938 211.140625 428.0625 213.570312 430.40625 216.644531 C 432.742188 219.722656 433.910156 223.78125 433.910156 228.824219 C 433.910156 233.792969 432.574219 238.128906 429.902344 241.835938 C 427.230469 245.542969 423.539062 248.394531 418.824219 250.398438 C 414.109375 252.398438 408.707031 253.398438 402.621094 253.398438 " fill-opacity="1" fill-rule="nonzero"/><path fill="#192851" d="M 465.085938 252.84375 C 459.144531 252.84375 454.878906 251.472656 452.28125 248.730469 C 449.683594 245.988281 448.382812 242.054688 448.382812 236.941406 L 448.382812 205.582031 L 439.480469 205.582031 L 439.480469 195.128906 L 448.382812 195.128906 L 448.382812 180.449219 L 461.191406 180.449219 L 461.191406 195.128906 L 472.992188 195.128906 L 472.992188 205.582031 L 461.191406 205.582031 L 461.191406 236.273438 C 461.191406 238.277344 461.785156 239.722656 462.96875 240.609375 C 464.160156 241.5 465.902344 241.945312 468.203125 241.945312 C 469.390625 241.945312 470.988281 241.835938 472.992188 241.609375 L 472.992188 251.730469 C 470.246094 252.472656 467.609375 252.84375 465.085938 252.84375 " fill-opacity="1" fill-rule="nonzero"/><path fill="#192851" d="M 507.621094 242.390625 C 510.808594 242.390625 513.59375 241.628906 515.972656 240.109375 C 518.347656 238.59375 520.183594 236.402344 521.480469 233.550781 C 522.78125 230.695312 523.429688 227.34375 523.429688 223.484375 C 523.429688 217.554688 522.019531 212.882812 519.203125 209.472656 C 516.378906 206.066406 512.554688 204.359375 507.734375 204.359375 C 502.832031 204.359375 498.953125 206.066406 496.09375 209.472656 C 493.238281 212.882812 491.808594 217.554688 491.808594 223.484375 C 491.808594 227.34375 492.457031 230.695312 493.757812 233.550781 C 495.054688 236.402344 496.914062 238.59375 499.324219 240.109375 C 501.734375 241.628906 504.503906 242.390625 507.621094 242.390625 Z M 504.839844 253.398438 C 499.714844 253.398438 495.1875 252.121094 491.253906 249.5625 C 487.316406 247.003906 484.238281 243.464844 482.011719 238.941406 C 479.785156 234.421875 478.671875 229.269531 478.671875 223.484375 C 478.671875 217.628906 479.785156 212.421875 482.011719 207.859375 C 484.238281 203.304688 487.316406 199.742188 491.253906 197.183594 C 495.1875 194.628906 499.714844 193.347656 504.839844 193.347656 C 508.621094 193.347656 512.113281 194.183594 515.304688 195.851562 C 518.496094 197.519531 521.203125 199.835938 523.429688 202.800781 L 523.429688 195.128906 L 536.234375 195.128906 L 536.234375 251.621094 L 523.429688 251.621094 L 523.429688 243.949219 C 521.203125 246.988281 518.496094 249.324219 515.304688 250.953125 C 512.113281 252.582031 508.621094 253.398438 504.839844 253.398438 " fill-opacity="1" fill-rule="nonzero"/><path fill="#192851" d="M 546.703125 251.621094 L 546.703125 195.128906 L 559.507812 195.128906 L 559.507812 205.027344 C 560.992188 201.6875 563.011719 199.113281 565.574219 197.296875 C 568.136719 195.480469 571.160156 194.570312 574.648438 194.570312 C 575.390625 194.570312 576.042969 194.589844 576.597656 194.628906 C 577.15625 194.667969 577.765625 194.757812 578.433594 194.90625 L 578.433594 207.027344 C 577.320312 206.804688 576.058594 206.691406 574.648438 206.691406 C 570.121094 206.691406 566.464844 208.25 563.683594 211.363281 C 560.898438 214.480469 559.507812 218.742188 559.507812 224.152344 L 559.507812 251.621094 L 546.703125 251.621094 " fill-opacity="1" fill-rule="nonzero"/><g clip-path="url(#a1c4ea7e7e)"><path fill="#192851" d="M 586.117188 251.621094 L 586.117188 170.996094 L 598.808594 170.996094 L 598.808594 251.621094 L 586.117188 251.621094 " fill-opacity="1" fill-rule="nonzero"/></g><g clip-path="url(#0cf44a50d1)"><path fill="#192851" d="M 609.386719 251.621094 L 609.386719 195.128906 L 622.304688 195.128906 L 622.304688 251.621094 Z M 615.847656 187.34375 C 613.542969 187.34375 611.59375 186.53125 610 184.898438 C 608.402344 183.265625 607.605469 181.304688 607.605469 179.003906 C 607.605469 176.707031 608.402344 174.722656 610 173.054688 C 611.59375 171.386719 613.542969 170.550781 615.847656 170.550781 C 618.148438 170.550781 620.132812 171.386719 621.804688 173.054688 C 623.472656 174.722656 624.308594 176.707031 624.308594 179.003906 C 624.308594 181.304688 623.472656 183.265625 621.804688 184.898438 C 620.132812 186.53125 618.148438 187.34375 615.847656 187.34375 " fill-opacity="1" fill-rule="nonzero"/></g><path fill="#192851" d="M 632.882812 251.621094 L 632.882812 195.128906 L 645.6875 195.128906 L 645.6875 203.359375 C 647.539062 200.167969 649.992188 197.707031 653.035156 195.960938 C 656.078125 194.21875 659.566406 193.347656 663.503906 193.347656 C 669.886719 193.347656 674.875 195.40625 678.476562 199.519531 C 682.078125 203.636719 683.878906 209.328125 683.878906 216.589844 L 683.878906 251.621094 L 670.960938 251.621094 L 670.960938 217.480469 C 670.960938 213.183594 669.996094 209.898438 668.066406 207.636719 C 666.136719 205.378906 663.28125 204.246094 659.492188 204.246094 C 656.820312 204.246094 654.445312 204.972656 652.367188 206.417969 C 650.289062 207.859375 648.65625 209.882812 647.46875 212.476562 C 646.28125 215.070312 645.6875 218.109375 645.6875 221.59375 L 645.6875 251.621094 L 632.882812 251.621094 " fill-opacity="1" fill-rule="nonzero"/><g clip-path="url(#cbd2921bd6)"><path fill="#192851" d="M 720.621094 240.277344 C 723.8125 240.277344 726.578125 239.535156 728.917969 238.054688 C 731.253906 236.570312 733.074219 234.476562 734.371094 231.769531 C 735.671875 229.0625 736.320312 225.859375 736.320312 222.152344 C 736.320312 216.519531 734.929688 212.070312 732.144531 208.804688 C 729.363281 205.546875 725.558594 203.914062 720.734375 203.914062 C 715.832031 203.914062 711.972656 205.546875 709.152344 208.804688 C 706.332031 212.070312 704.921875 216.519531 704.921875 222.152344 C 704.921875 225.859375 705.570312 229.0625 706.871094 231.769531 C 708.167969 234.476562 710.003906 236.570312 712.382812 238.054688 C 714.757812 239.535156 717.503906 240.277344 720.621094 240.277344 Z M 721.289062 274.527344 C 714.683594 274.527344 708.984375 273.082031 704.199219 270.191406 C 699.410156 267.300781 696.238281 263.222656 694.675781 257.957031 L 706.925781 254.734375 C 708.039062 257.773438 709.855469 260.070312 712.382812 261.628906 C 714.90625 263.1875 717.984375 263.964844 721.621094 263.964844 C 724.742188 263.964844 727.394531 263.410156 729.585938 262.296875 C 731.773438 261.183594 733.445312 259.53125 734.59375 257.347656 C 735.746094 255.160156 736.320312 252.472656 736.320312 249.285156 L 736.320312 241.835938 C 734.09375 244.652344 731.402344 246.839844 728.25 248.394531 C 725.09375 249.953125 721.621094 250.730469 717.839844 250.730469 C 712.789062 250.730469 708.300781 249.527344 704.367188 247.117188 C 700.429688 244.707031 697.351562 241.332031 695.121094 236.996094 C 692.898438 232.660156 691.78125 227.710938 691.78125 222.152344 C 691.78125 216.589844 692.898438 211.625 695.121094 207.25 C 697.351562 202.875 700.429688 199.464844 704.367188 197.019531 C 708.300781 194.570312 712.789062 193.347656 717.839844 193.347656 C 721.621094 193.347656 725.113281 194.128906 728.304688 195.683594 C 731.496094 197.242188 734.167969 199.464844 736.320312 202.355469 L 736.320312 195.128906 L 749.015625 195.128906 L 749.015625 249.0625 C 749.015625 254.324219 747.882812 258.867188 745.617188 262.683594 C 743.355469 266.5 740.125 269.429688 735.933594 271.46875 C 731.738281 273.507812 726.859375 274.527344 721.289062 274.527344 " fill-opacity="1" fill-rule="nonzero"/></g><path fill="#192851" d="M 411.753906 340.414062 C 415.761719 340.414062 418.898438 339.34375 421.160156 337.191406 C 423.425781 335.042969 424.558594 332.113281 424.558594 328.40625 C 424.558594 324.699219 423.425781 321.734375 421.160156 319.507812 C 418.898438 317.285156 415.761719 316.171875 411.753906 316.171875 L 388.257812 316.171875 L 388.257812 340.414062 Z M 410.417969 306.164062 C 414.054688 306.164062 416.910156 305.144531 418.988281 303.105469 C 421.066406 301.066406 422.109375 298.378906 422.109375 295.046875 C 422.109375 291.636719 421.066406 288.964844 418.988281 287.039062 C 416.910156 285.113281 413.980469 284.144531 410.195312 284.144531 L 388.257812 284.144531 L 388.257812 306.164062 Z M 375.007812 351.425781 L 375.007812 273.136719 L 412.644531 273.136719 C 417.246094 273.136719 421.253906 274.027344 424.667969 275.804688 C 428.082031 277.585938 430.679688 280.03125 432.464844 283.144531 C 434.246094 286.261719 435.132812 289.707031 435.132812 293.488281 C 435.132812 297.269531 434.167969 300.625 432.238281 303.550781 C 430.308594 306.480469 427.675781 308.6875 424.335938 310.167969 C 428.714844 311.652344 432.074219 314.078125 434.410156 317.453125 C 436.75 320.824219 437.917969 324.8125 437.917969 329.40625 C 437.917969 333.558594 436.972656 337.320312 435.078125 340.695312 C 433.1875 344.066406 430.496094 346.699219 427.007812 348.589844 C 423.519531 350.480469 419.4375 351.425781 414.761719 351.425781 L 375.007812 351.425781 " fill-opacity="1" fill-rule="nonzero"/><g clip-path="url(#5952089789)"><path fill="#192851" d="M 472.992188 342.195312 C 476.183594 342.195312 478.96875 341.4375 481.34375 339.914062 C 483.71875 338.398438 485.554688 336.210938 486.855469 333.355469 C 488.152344 330.5 488.804688 327.144531 488.804688 323.289062 C 488.804688 317.359375 487.390625 312.691406 484.570312 309.277344 C 481.75 305.871094 477.929688 304.164062 473.101562 304.164062 C 468.203125 304.164062 464.324219 305.871094 461.46875 309.277344 C 458.609375 312.691406 457.179688 317.359375 457.179688 323.289062 C 457.179688 327.144531 457.832031 330.5 459.128906 333.355469 C 460.425781 336.210938 462.28125 338.398438 464.699219 339.914062 C 467.109375 341.4375 469.871094 342.195312 472.992188 342.195312 Z M 470.207031 353.203125 C 465.085938 353.203125 460.558594 351.925781 456.625 349.367188 C 452.6875 346.808594 449.609375 343.269531 447.378906 338.746094 C 445.15625 334.226562 444.042969 329.074219 444.042969 323.289062 C 444.042969 317.433594 445.15625 312.226562 447.378906 307.664062 C 449.609375 303.105469 452.6875 299.546875 456.625 296.992188 C 460.558594 294.433594 465.085938 293.15625 470.207031 293.15625 C 473.992188 293.15625 477.480469 293.988281 480.671875 295.65625 C 483.863281 297.324219 486.574219 299.640625 488.804688 302.605469 L 488.804688 294.933594 L 501.609375 294.933594 L 501.609375 351.425781 L 488.804688 351.425781 L 488.804688 343.753906 C 486.574219 346.792969 483.863281 349.128906 480.671875 350.757812 C 477.480469 352.386719 473.992188 353.203125 470.207031 353.203125 " fill-opacity="1" fill-rule="nonzero"/></g><path fill="#192851" d="M 512.074219 351.425781 L 512.074219 294.933594 L 524.878906 294.933594 L 524.878906 303.164062 C 526.730469 299.976562 529.183594 297.511719 532.226562 295.769531 C 535.269531 294.027344 538.757812 293.15625 542.695312 293.15625 C 549.078125 293.15625 554.070312 295.210938 557.667969 299.324219 C 561.269531 303.441406 563.066406 309.132812 563.066406 316.394531 L 563.066406 351.425781 L 550.152344 351.425781 L 550.152344 317.285156 C 550.152344 312.988281 549.1875 309.707031 547.257812 307.445312 C 545.328125 305.183594 542.472656 304.050781 538.683594 304.050781 C 536.011719 304.050781 533.636719 304.777344 531.558594 306.222656 C 529.480469 307.664062 527.847656 309.6875 526.660156 312.28125 C 525.46875 314.875 524.878906 317.917969 524.878906 321.398438 L 524.878906 351.425781 L 512.074219 351.425781 " fill-opacity="1" fill-rule="nonzero"/><path fill="#192851" d="M 573.644531 351.425781 L 573.644531 270.800781 L 586.335938 270.800781 L 586.335938 316.394531 L 608.382812 294.933594 L 624.53125 294.933594 L 600.703125 318.398438 L 625.085938 351.425781 L 609.945312 351.425781 L 591.90625 327.074219 L 586.335938 332.519531 L 586.335938 351.425781 L 573.644531 351.425781 " fill-opacity="1" fill-rule="nonzero"/><g clip-path="url(#cca6ca11c4)"><path fill="#6935d3" d="M 331.621094 261.199219 C 331.621094 311.019531 291.1875 351.402344 241.304688 351.402344 C 191.421875 351.402344 150.988281 311.019531 150.988281 261.199219 C 150.988281 211.382812 191.421875 171 241.304688 171 C 291.1875 171 331.621094 211.382812 331.621094 261.199219 " fill-opacity="1" fill-rule="nonzero"/></g><path fill="#ffffff" d="M 205.375 261.203125 L 205.375 256.195312 C 205.375 225.058594 230.734375 199.730469 261.914062 199.730469 L 266.921875 199.730469 L 266.921875 220.203125 L 261.914062 220.203125 C 242.042969 220.203125 225.871094 236.347656 225.871094 256.195312 L 225.871094 261.203125 L 205.375 261.203125 " fill-opacity="1" fill-rule="nonzero"/><path fill="#ffffff" d="M 277.234375 261.199219 L 277.234375 266.207031 C 277.234375 297.34375 251.878906 322.671875 220.695312 322.671875 L 215.6875 322.671875 L 215.6875 302.199219 L 220.695312 302.199219 C 240.566406 302.199219 256.742188 286.054688 256.742188 266.207031 L 256.742188 261.199219 L 277.234375 261.199219 " fill-opacity="1" fill-rule="nonzero"/></svg>