<svg xmlns="http://www.w3.org/2000/svg" xmlns:xlink="http://www.w3.org/1999/xlink" width="500" zoomAndPan="magnify" viewBox="0 0 375 374.999991" height="500" preserveAspectRatio="xMidYMid meet" version="1.0"><defs><g/><clipPath id="4e016049c6"><path d="M 187.5 0 C 83.945312 0 0 83.945312 0 187.5 C 0 291.054688 83.945312 375 187.5 375 C 291.054688 375 375 291.054688 375 187.5 C 375 83.945312 291.054688 0 187.5 0 Z M 187.5 0 " clip-rule="nonzero"/></clipPath></defs><rect x="-37.5" width="450" fill="#ffffff" y="-37.499999" height="449.999989" fill-opacity="1"/><rect x="-37.5" width="450" fill="#ffffff" y="-37.499999" height="449.999989" fill-opacity="1"/><g clip-path="url(#4e016049c6)"><path stroke-linecap="butt" transform="matrix(0.75, 0, 0, 0.75, 0.0000045, 0)" fill="none" stroke-linejoin="miter" d="M 250.00001 0 C 111.927085 0 -0.000006 111.927091 -0.000006 250.000016 C -0.000006 388.072942 111.927085 500.000033 250.00001 500.000033 C 388.072936 500.000033 500.000027 388.072942 500.000027 250.000016 C 500.000027 111.927091 388.072936 0 250.00001 0 Z M 250.00001 0 " stroke="#3a3cf7" stroke-width="44" stroke-opacity="1" stroke-miterlimit="4"/></g><g fill="#3a3cf7" fill-opacity="1"><g transform="translate(117.854001, 275.081225)"><g><path d="M 59.625 -63.171875 C 59.625 -65.96875 59.359375 -68.75 59.109375 -71.296875 L 110.109375 -71.296875 L 110.109375 -88.796875 L 54.546875 -88.796875 C 52.265625 -94.375 49.71875 -99.953125 47.1875 -105.28125 C 42.109375 -115.9375 37.296875 -126.84375 37.296875 -136.75 C 37.296875 -153.75 48.203125 -165.421875 70.28125 -165.421875 C 98.9375 -165.421875 109.09375 -151.203125 110.875 -128.125 L 132.9375 -128.125 C 131.921875 -158.5625 115.4375 -184.703125 71.296875 -184.703125 C 37.546875 -184.703125 15.734375 -165.15625 15.734375 -136.75 C 15.734375 -121.015625 21.5625 -109.09375 27.40625 -97.671875 C 28.921875 -94.625 30.4375 -91.84375 31.71875 -88.796875 L 7.609375 -88.796875 L 7.609375 -71.296875 L 37.296875 -71.296875 C 37.796875 -68.75 38.0625 -65.96875 38.0625 -63.171875 C 38.0625 -43.390625 27.90625 -31.203125 10.65625 -19.28125 L 10.65625 0 L 132.9375 0 L 132.9375 -19.28125 L 36.03125 -19.28125 C 47.703125 -29.421875 59.625 -42.625 59.625 -63.171875 Z M 59.625 -63.171875 "/></g></g></g></svg>