<svg xmlns="http://www.w3.org/2000/svg" width="45.842" height="37.976" viewBox="0 0 45.842 37.976">
  <g id="svgexport-8_1_" data-name="svgexport-8 (1)" transform="translate(0.25 -1.735)">
    <path id="Path_13461" data-name="Path 13461" d="M32.521,26.82V22.88A7.88,7.88,0,0,0,24.641,15H8.88A7.88,7.88,0,0,0,1,22.88v3.94" transform="translate(0 11.641)" fill="none" stroke="#635dff" stroke-linecap="round" stroke-linejoin="round" stroke-width="2.5"/>
    <path id="Path_13462" data-name="Path 13462" d="M12.88,18.761A7.88,7.88,0,1,0,5,10.88,7.88,7.88,0,0,0,12.88,18.761Z" transform="translate(3.88)" fill="none" stroke="#635dff" stroke-linecap="round" stroke-linejoin="round" stroke-width="2.5" fill-rule="evenodd"/>
    <path id="Path_13463" data-name="Path 13463" d="M25.91,26.694v-3.94A7.88,7.88,0,0,0,20,15.13" transform="translate(18.432 11.767)" fill="none" stroke="#635dff" stroke-linecap="round" stroke-linejoin="round" stroke-width="2.5"/>
    <path id="Path_13464" data-name="Path 13464" d="M16,3.13A7.88,7.88,0,0,1,16,18.4" transform="translate(14.551 0.126)" fill="none" stroke="#635dff" stroke-linecap="round" stroke-linejoin="round" stroke-width="2.5"/>
  </g>
</svg>
